<?xml version="1.0" encoding="UTF-8" standalone="no"?><!DOCTYPE svg PUBLIC "-//W3C//DTD SVG 1.1//EN" "http://www.w3.org/Graphics/SVG/1.1/DTD/svg11.dtd"><svg width="100%" height="100%" viewBox="0 0 31 31" version="1.1" xmlns="http://www.w3.org/2000/svg" xmlns:xlink="http://www.w3.org/1999/xlink" xml:space="preserve" xmlns:serif="http://www.serif.com/" style="fill-rule:evenodd;clip-rule:evenodd;stroke-linejoin:round;stroke-miterlimit:2;"><g transform="matrix(0.288409,0,0,0.300272,-1.02893,-1.73214)"><g transform="matrix(43.2941,0,0,43.2941,8.00594,45.0079)"><path d="M0.068,-0.519l0.128,0l-0,0.077c0.016,-0.026 0.039,-0.048 0.067,-0.064c0.029,-0.016 0.06,-0.024 0.094,-0.024c0.061,-0 0.112,0.023 0.154,0.071c0.042,0.047 0.063,0.112 0.063,0.197c-0,0.086 -0.021,0.154 -0.064,0.202c-0.042,0.048 -0.093,0.072 -0.154,0.072c-0.028,-0 -0.054,-0.006 -0.077,-0.017c-0.024,-0.012 -0.048,-0.031 -0.074,-0.059l0,0.261l-0.137,0l-0,-0.716Zm0.136,0.251c-0,0.058 0.011,0.101 0.034,0.129c0.023,0.028 0.052,0.042 0.085,0.042c0.032,-0 0.058,-0.013 0.079,-0.038c0.022,-0.026 0.032,-0.068 0.032,-0.126c0,-0.055 -0.011,-0.095 -0.033,-0.121c-0.021,-0.027 -0.048,-0.04 -0.081,-0.04c-0.033,0 -0.061,0.013 -0.083,0.039c-0.022,0.026 -0.033,0.064 -0.033,0.115Z" style="fill-rule:nonzero;"/></g><g transform="matrix(43.2941,0,0,43.2941,34.4517,45.0079)"><rect x="0.072" y="-0.716" width="0.137" height="0.716" style="fill-rule:nonzero;"/></g><g transform="matrix(43.2941,0,0,43.2941,46.4802,45.0079)"><path d="M0.174,-0.36l-0.124,-0.023c0.014,-0.05 0.038,-0.087 0.072,-0.111c0.034,-0.024 0.085,-0.036 0.152,-0.036c0.062,-0 0.107,0.007 0.137,0.021c0.03,0.015 0.051,0.033 0.063,0.056c0.013,0.022 0.019,0.063 0.019,0.122l-0.002,0.161c0,0.045 0.002,0.079 0.007,0.1c0.004,0.022 0.012,0.045 0.024,0.07l-0.135,-0c-0.004,-0.009 -0.008,-0.023 -0.013,-0.041c-0.003,-0.008 -0.004,-0.013 -0.005,-0.016c-0.024,0.023 -0.049,0.04 -0.076,0.052c-0.026,0.011 -0.055,0.017 -0.085,0.017c-0.053,-0 -0.095,-0.015 -0.126,-0.044c-0.031,-0.029 -0.046,-0.065 -0.046,-0.11c-0,-0.029 0.007,-0.055 0.021,-0.078c0.014,-0.023 0.033,-0.04 0.058,-0.053c0.026,-0.012 0.062,-0.023 0.11,-0.032c0.064,-0.012 0.108,-0.023 0.133,-0.033l-0,-0.014c-0,-0.026 -0.007,-0.045 -0.02,-0.056c-0.013,-0.012 -0.037,-0.017 -0.073,-0.017c-0.025,-0 -0.044,0.005 -0.057,0.014c-0.014,0.01 -0.025,0.027 -0.034,0.051Zm0.184,0.111c-0.018,0.006 -0.045,0.013 -0.084,0.021c-0.038,0.008 -0.063,0.016 -0.074,0.024c-0.018,0.013 -0.027,0.029 -0.027,0.048c-0,0.019 0.007,0.036 0.021,0.05c0.015,0.014 0.033,0.021 0.055,0.021c0.025,0 0.048,-0.008 0.071,-0.024c0.016,-0.013 0.027,-0.028 0.033,-0.046c0.003,-0.012 0.005,-0.034 0.005,-0.067l-0,-0.027Z" style="fill-rule:nonzero;"/></g><g transform="matrix(43.2941,0,0,43.2941,70.5583,45.0079)"><path d="M0.072,-0.589l-0,-0.127l0.137,0l-0,0.127l-0.137,0Zm-0,0.589l-0,-0.519l0.137,0l-0,0.519l-0.137,-0Z" style="fill-rule:nonzero;"/></g><g transform="matrix(43.2941,0,0,43.2941,82.5868,45.0079)"><path d="M0.543,-0l-0.137,-0l0,-0.265c0,-0.056 -0.003,-0.092 -0.009,-0.108c-0.005,-0.017 -0.015,-0.03 -0.028,-0.039c-0.013,-0.009 -0.029,-0.013 -0.048,-0.013c-0.023,-0 -0.045,0.006 -0.064,0.019c-0.019,0.013 -0.031,0.031 -0.038,0.052c-0.007,0.021 -0.011,0.061 -0.011,0.119l0,0.235l-0.137,-0l-0,-0.519l0.127,0l0,0.077c0.045,-0.059 0.102,-0.088 0.171,-0.088c0.03,-0 0.058,0.005 0.083,0.016c0.025,0.011 0.044,0.025 0.057,0.042c0.013,0.017 0.022,0.036 0.027,0.057c0.005,0.022 0.007,0.053 0.007,0.093l0,0.322Z" style="fill-rule:nonzero;"/></g><g transform="matrix(43.2941,0,0,43.2941,8.00594,89.7183)"><path d="M0.174,-0.36l-0.124,-0.023c0.014,-0.05 0.038,-0.087 0.072,-0.111c0.034,-0.024 0.085,-0.036 0.152,-0.036c0.062,-0 0.107,0.007 0.137,0.021c0.03,0.015 0.051,0.033 0.063,0.056c0.013,0.022 0.019,0.063 0.019,0.122l-0.002,0.161c0,0.045 0.002,0.079 0.007,0.1c0.004,0.022 0.012,0.045 0.024,0.07l-0.135,-0c-0.004,-0.009 -0.008,-0.023 -0.013,-0.041c-0.003,-0.008 -0.004,-0.013 -0.005,-0.016c-0.024,0.023 -0.049,0.04 -0.076,0.052c-0.026,0.011 -0.055,0.017 -0.085,0.017c-0.053,-0 -0.095,-0.015 -0.126,-0.044c-0.031,-0.029 -0.046,-0.065 -0.046,-0.11c-0,-0.029 0.007,-0.055 0.021,-0.078c0.014,-0.023 0.033,-0.04 0.058,-0.053c0.026,-0.012 0.062,-0.023 0.11,-0.032c0.064,-0.012 0.108,-0.023 0.133,-0.033l-0,-0.014c-0,-0.026 -0.007,-0.045 -0.02,-0.056c-0.013,-0.012 -0.037,-0.017 -0.073,-0.017c-0.025,-0 -0.044,0.005 -0.057,0.014c-0.014,0.01 -0.025,0.027 -0.034,0.051Zm0.184,0.111c-0.018,0.006 -0.045,0.013 -0.084,0.021c-0.038,0.008 -0.063,0.016 -0.074,0.024c-0.018,0.013 -0.027,0.029 -0.027,0.048c-0,0.019 0.007,0.036 0.021,0.05c0.015,0.014 0.033,0.021 0.055,0.021c0.025,0 0.048,-0.008 0.071,-0.024c0.016,-0.013 0.027,-0.028 0.033,-0.046c0.003,-0.012 0.005,-0.034 0.005,-0.067l-0,-0.027Z" style="fill:#ff001a;fill-rule:nonzero;"/></g><g transform="matrix(43.2941,0,0,43.2941,32.084,89.7183)"><path d="M0.059,0.034l0.157,0.019c0.002,0.018 0.008,0.031 0.018,0.038c0.013,0.01 0.033,0.014 0.061,0.014c0.036,0 0.063,-0.005 0.081,-0.016c0.012,-0.007 0.021,-0.018 0.027,-0.034c0.005,-0.012 0.007,-0.033 0.007,-0.063l-0,-0.076c-0.041,0.056 -0.093,0.084 -0.156,0.084c-0.069,-0 -0.124,-0.029 -0.165,-0.088c-0.032,-0.047 -0.048,-0.105 -0.048,-0.174c0,-0.087 0.021,-0.154 0.063,-0.199c0.042,-0.046 0.094,-0.069 0.156,-0.069c0.064,-0 0.117,0.028 0.158,0.084l0,-0.073l0.129,0l-0,0.466c-0,0.061 -0.005,0.107 -0.015,0.137c-0.01,0.03 -0.025,0.054 -0.043,0.071c-0.018,0.018 -0.042,0.031 -0.073,0.041c-0.03,0.01 -0.069,0.014 -0.115,0.014c-0.088,0 -0.15,-0.015 -0.187,-0.045c-0.037,-0.03 -0.055,-0.068 -0.055,-0.114c-0,-0.005 -0,-0.01 0,-0.017Zm0.123,-0.304c-0,0.055 0.01,0.095 0.032,0.121c0.021,0.025 0.047,0.038 0.078,0.038c0.034,0 0.062,-0.013 0.085,-0.039c0.024,-0.026 0.035,-0.065 0.035,-0.117c0,-0.053 -0.011,-0.093 -0.033,-0.119c-0.022,-0.026 -0.05,-0.039 -0.084,-0.039c-0.033,-0 -0.06,0.012 -0.081,0.038c-0.022,0.026 -0.032,0.065 -0.032,0.117Z" style="fill:#ff001a;fill-rule:nonzero;"/></g><g transform="matrix(43.2941,0,0,43.2941,58.5298,89.7183)"><path d="M0.072,-0.589l-0,-0.127l0.137,0l-0,0.127l-0.137,0Zm-0,0.589l-0,-0.519l0.137,0l-0,0.519l-0.137,-0Z" style="fill:#ff001a;fill-rule:nonzero;"/></g><g transform="matrix(43.2941,0,0,43.2941,70.5583,89.7183)"><rect x="0.072" y="-0.716" width="0.137" height="0.716" style="fill:#ff001a;fill-rule:nonzero;"/></g><g transform="matrix(43.2941,0,0,43.2941,82.5868,89.7183)"><path d="M0.372,-0.165l0.137,0.023c-0.018,0.05 -0.046,0.088 -0.083,0.114c-0.038,0.027 -0.086,0.04 -0.143,0.04c-0.09,-0 -0.157,-0.03 -0.2,-0.089c-0.034,-0.047 -0.051,-0.106 -0.051,-0.178c-0,-0.086 0.022,-0.154 0.067,-0.202c0.045,-0.049 0.102,-0.073 0.171,-0.073c0.077,-0 0.138,0.025 0.182,0.076c0.045,0.051 0.066,0.129 0.064,0.234l-0.344,0c0.001,0.041 0.012,0.073 0.034,0.095c0.021,0.023 0.047,0.034 0.079,0.034c0.021,0 0.039,-0.006 0.054,-0.017c0.015,-0.012 0.026,-0.031 0.033,-0.057Zm0.008,-0.139c-0.001,-0.039 -0.011,-0.07 -0.031,-0.09c-0.019,-0.021 -0.043,-0.031 -0.071,-0.031c-0.03,-0 -0.055,0.011 -0.074,0.032c-0.02,0.022 -0.03,0.052 -0.029,0.089l0.205,0Z" style="fill:#ff001a;fill-rule:nonzero;"/></g></g></svg>